<svg width="56" height="58" viewBox="0 0 56 58" fill="none" xmlns="http://www.w3.org/2000/svg">
<g clip-path="url(#clip0_891_36481)">
<path d="M42.3292 41.7685C39.5503 43.4559 36.3086 44.4689 32.8266 44.571C26.8931 44.7452 21.5034 42.2401 17.8186 38.1509" stroke="black" stroke-width="1.74222" stroke-miterlimit="10"/>
<path d="M13.2437 21.1344C15.0493 12.5539 22.5372 5.99819 31.6888 5.73063C37.7318 5.55392 43.2124 8.15606 46.9009 12.3809" stroke="black" stroke-width="1.74222" stroke-miterlimit="10"/>
<path d="M39.9062 39.2001C37.6338 40.4383 35.028 41.1427 32.2578 41.1427C27.0324 41.1427 22.3919 38.6376 19.4724 34.7637" stroke="black" stroke-width="1.74222" stroke-miterlimit="10" stroke-linecap="round"/>
<path d="M16.4197 22.8568C17.5285 15.1027 24.1975 9.14307 32.2577 9.14307C36.6257 9.14307 40.5843 10.8928 43.4714 13.7313" stroke="black" stroke-width="1.74222" stroke-miterlimit="10" stroke-linecap="round"/>
<path d="M32.2575 27.429C33.52 27.429 34.5435 26.4055 34.5435 25.143C34.5435 23.8804 33.52 22.8569 32.2575 22.8569C30.9949 22.8569 29.9714 23.8804 29.9714 25.143C29.9714 26.4055 30.9949 27.429 32.2575 27.429Z" stroke="black" stroke-width="1.74222" stroke-miterlimit="10"/>
<path d="M32.2581 13.7139V22.8568" stroke="black" stroke-width="1.74222" stroke-miterlimit="10"/>
<path d="M32.2581 0V3.42845" stroke="black" stroke-width="1.74222" stroke-miterlimit="10"/>
<path d="M48.0662 5.71436L45.8623 8.34013" stroke="black" stroke-width="1.74222" stroke-miterlimit="10"/>
<path d="M16.2581 5.37354L18.462 8.00056" stroke="black" stroke-width="1.74222" stroke-miterlimit="10"/>
<path d="M52.3034 20.4302H48.2752C46.6064 20.4302 45.2537 21.7829 45.2537 23.4517C45.2537 25.1205 46.6064 26.4732 48.2752 26.4732H52.3034C53.9722 26.4732 55.325 25.1205 55.325 23.4517C55.325 21.7829 53.9722 20.4302 52.3034 20.4302V20.4302Z" stroke="black" stroke-width="1.74222" stroke-miterlimit="10"/>
<path d="M50.7368 12.6934H46.7085C45.0422 12.6983 43.692 14.0486 43.687 15.7149C43.692 17.3812 45.0422 18.7314 46.7085 18.7364H50.7368C52.4056 18.7364 53.7583 17.3837 53.7583 15.7149C53.7583 14.0461 52.4056 12.6934 50.7368 12.6934Z" stroke="black" stroke-width="1.74222" stroke-miterlimit="10"/>
<path d="M47.4416 35.646H43.4134C41.7446 35.646 40.3918 36.9987 40.3918 38.6675C40.3918 40.3363 41.7446 41.689 43.4134 41.689H47.4416C49.1104 41.689 50.4631 40.3363 50.4631 38.6675C50.4631 36.9987 49.1104 35.646 47.4416 35.646V35.646Z" stroke="black" stroke-width="1.74222" stroke-miterlimit="10"/>
<path d="M51.0593 28.1792H47.031C45.3622 28.1792 44.0095 29.5319 44.0095 31.2007C44.0095 32.8695 45.3622 34.2222 47.031 34.2222H51.0593C52.7281 34.2222 54.0808 32.8695 54.0808 31.2007C54.0808 29.5319 52.7281 28.1792 51.0593 28.1792V28.1792Z" stroke="black" stroke-width="1.74222" stroke-miterlimit="10"/>
<path d="M13.6833 42.1418C16.9873 40.7045 19.1215 37.4465 19.1215 33.8426V29.8143C19.1265 27.4101 18.167 25.1029 16.4621 23.4092C15.6669 22.6065 14.7224 21.9619 13.6821 21.5164C13.3174 21.3521 13.0797 20.99 13.0773 20.5893V7.65823C13.0723 5.99192 11.7221 4.6417 10.0557 4.63672H7.03423V41.8991C7.03175 42.1654 6.92846 42.423 6.74179 42.6147L0.991211 48.3653V55.9999H27.7605L42.878 41.6888" stroke="black" stroke-width="1.74222" stroke-miterlimit="10"/>
</g>
<defs>
<clipPath id="clip0_891_36481">
<rect width="56" height="57.12" fill="white"/>
</clipPath>
</defs>
</svg>
